<svg width="17" height="16" viewBox="0 0 17 16" fill="none" xmlns="http://www.w3.org/2000/svg">
<g clip-path="url(#clip0_1_982)">
<path d="M8.21652 8.64002L11.205 10.88C11.3117 10.9867 11.4362 11.0311 11.5786 11.0134C11.7209 10.9956 11.8276 10.9245 11.8988 10.8C11.9699 10.6756 11.9966 10.5511 11.9788 10.4267C11.961 10.3022 11.8988 10.1867 11.792 10.08L9.01701 8.00002V3.73335C9.01701 3.59113 8.97254 3.47557 8.88359 3.38669C8.79465 3.2978 8.67903 3.25335 8.53672 3.25335C8.39441 3.25335 8.26989 3.2978 8.16316 3.38669C8.05643 3.47557 8.00306 3.59113 8.00306 3.73335V8.26669C8.00306 8.44446 8.07422 8.56891 8.21652 8.64002ZM8.75018 0.48002C7.57614 0.48002 6.45546 0.755575 5.38815 1.30669C4.32084 1.8578 3.43141 2.60446 2.71987 3.54669C2.00833 4.48891 1.56361 5.56446 1.38573 6.77335L1.17227 6.45335C1.10111 6.34669 0.99438 6.28446 0.852072 6.26669C0.709764 6.24891 0.585244 6.27557 0.478513 6.34669C0.371782 6.4178 0.300627 6.52446 0.26505 6.66669C0.229473 6.80891 0.26505 6.93335 0.371782 7.04002L1.33236 8.53335C1.43909 8.67557 1.56361 8.74669 1.70592 8.74669H1.75929C1.9016 8.74669 2.02612 8.69335 2.13285 8.58669L3.36026 7.36002C3.46699 7.25335 3.52035 7.12891 3.52035 6.98669C3.52035 6.84446 3.46699 6.72891 3.36026 6.64002C3.25352 6.55113 3.1379 6.50669 3.01338 6.50669C2.88886 6.50669 2.77323 6.56002 2.6665 6.66669L2.34631 6.93335C2.52419 5.79558 2.9867 4.78224 3.73381 3.89335C4.48093 3.00446 5.38815 2.34669 6.45546 1.92002C7.52277 1.49335 8.64345 1.3778 9.81749 1.57335C10.9915 1.76891 12.0233 2.23113 12.9127 2.96002C13.8021 3.68891 14.4514 4.59557 14.8605 5.68002C15.2697 6.76446 15.3853 7.89335 15.2074 9.06669C15.0295 10.0978 14.6382 11.0222 14.0334 11.84C13.4286 12.6578 12.6637 13.3067 11.7387 13.7867C10.8137 14.2667 9.83528 14.5067 8.80355 14.5067C7.77181 14.5067 6.80234 14.2845 5.89512 13.84C4.98791 13.3956 4.24968 12.7645 3.68045 11.9467C3.60929 11.84 3.50256 11.7778 3.36026 11.76C3.21795 11.7422 3.09343 11.7689 2.9867 11.84C2.87996 11.9111 2.80881 12.0178 2.77323 12.16C2.73766 12.3022 2.77323 12.4267 2.87996 12.5334C3.55593 13.4934 4.41867 14.2311 5.4682 14.7467C6.51772 15.2622 7.61171 15.52 8.75018 15.52C10.1377 15.52 11.4007 15.1822 12.5391 14.5067C13.6776 13.8311 14.5848 12.9156 15.2608 11.76C15.9367 10.6045 16.2747 9.35113 16.2747 8.00002C16.2747 6.64891 15.9367 5.39557 15.2608 4.24002C14.5848 3.08446 13.6776 2.16891 12.5391 1.49335C11.4007 0.817797 10.1377 0.48002 8.75018 0.48002Z" fill="#6D757F"/>
</g>
<defs>
<clipPath id="clip0_1_982">
<rect width="16.54" height="16" fill="white" transform="matrix(1 0 0 -1 0 16)"/>
</clipPath>
</defs>
</svg>
