<svg width="17" height="16" viewBox="0 0 17 16" fill="none" xmlns="http://www.w3.org/2000/svg">
<g clip-path="url(#clip0_1_931)">
<path d="M13.9183 2.34667C13.1717 1.6 12.3095 1.02222 11.3317 0.613333C10.3539 0.204444 9.33168 0 8.26501 0C7.19835 0 6.17613 0.204444 5.19835 0.613333C4.22057 1.02222 3.35835 1.6 2.61168 2.34667C1.86501 3.09333 1.28724 3.95555 0.878348 4.93333C0.469459 5.91111 0.265015 6.93333 0.265015 8C0.265015 9.06667 0.469459 10.0889 0.878348 11.0667C1.28724 12.0444 1.86501 12.9067 2.61168 13.6533C3.35835 14.4 4.22057 14.9778 5.19835 15.3867C6.17613 15.7956 7.19835 16 8.26501 16C9.33168 16 10.3539 15.7956 11.3317 15.3867C12.3095 14.9778 13.1717 14.4 13.9183 13.6533C14.665 12.9067 15.2428 12.0444 15.6517 11.0667C16.0606 10.0889 16.265 9.06667 16.265 8C16.265 6.93333 16.0606 5.91111 15.6517 4.93333C15.2428 3.95555 14.665 3.09333 13.9183 2.34667ZM3.73168 13.44C3.83835 12.6933 4.10501 12.0089 4.53168 11.3867C4.95835 10.7644 5.50057 10.2756 6.15835 9.92C6.81613 9.56444 7.51835 9.38667 8.26501 9.38667C8.86946 9.38667 9.44724 9.50222 9.99835 9.73333C10.5495 9.96444 11.0383 10.2933 11.465 10.72C12.2117 11.4667 12.6561 12.3733 12.7983 13.44C12.1583 13.9378 11.4561 14.3289 10.6917 14.6133C9.92724 14.8978 9.11835 15.04 8.26501 15.04C7.41168 15.04 6.60279 14.8978 5.83835 14.6133C5.0739 14.3289 4.37168 13.9378 3.73168 13.44ZM8.26501 8.42667C7.58946 8.42667 7.01168 8.18667 6.53168 7.70667C6.05168 7.22667 5.81168 6.65778 5.81168 6C5.81168 5.34222 6.05168 4.77333 6.53168 4.29333C7.01168 3.81333 7.58946 3.57333 8.26501 3.57333C8.94057 3.57333 9.51835 3.81333 9.99835 4.29333C10.4783 4.77333 10.7183 5.34222 10.7183 6C10.7183 6.65778 10.4783 7.22667 9.99835 7.70667C9.51835 8.18667 8.94057 8.42667 8.26501 8.42667ZM13.5983 12.64C13.3495 11.6444 12.8695 10.7911 12.1583 10.08C11.5895 9.47556 10.9139 9.04889 10.1317 8.8C10.5939 8.48 10.9583 8.07111 11.225 7.57333C11.4917 7.07556 11.625 6.53333 11.625 5.94667C11.625 5.36 11.4739 4.80889 11.1717 4.29333C10.8695 3.77778 10.4606 3.36889 9.94501 3.06667C9.42946 2.76444 8.86946 2.61333 8.26501 2.61333C7.66057 2.61333 7.10057 2.76444 6.58501 3.06667C6.06946 3.36889 5.66057 3.77778 5.35835 4.29333C5.05613 4.80889 4.90501 5.36 4.90501 5.94667C4.90501 6.53333 5.03835 7.07556 5.30501 7.57333C5.57168 8.07111 5.93613 8.48 6.39835 8.8C5.68724 9.04889 5.06501 9.42222 4.53168 9.92C3.7139 10.6667 3.18057 11.5733 2.93168 12.64C2.39835 12 1.98057 11.28 1.67835 10.48C1.37613 9.68 1.22501 8.85333 1.22501 8C1.22501 6.72 1.53613 5.53778 2.15835 4.45333C2.78057 3.36889 3.6339 2.51556 4.71835 1.89333C5.80279 1.27111 6.98501 0.96 8.26501 0.96C9.54502 0.96 10.7272 1.27111 11.8117 1.89333C12.8961 2.51556 13.7495 3.36889 14.3717 4.45333C14.9939 5.53778 15.305 6.72 15.305 8C15.305 8.85333 15.1539 9.68 14.8517 10.48C14.5495 11.28 14.1317 12 13.5983 12.64Z" fill="#6D757F"/>
</g>
<defs>
<clipPath id="clip0_1_931">
<rect width="16.53" height="16" fill="white" transform="matrix(1 0 0 -1 0 16)"/>
</clipPath>
</defs>
</svg>
