<svg width="22" height="22" viewBox="0 0 22 22" fill="none" xmlns="http://www.w3.org/2000/svg">
<g clip-path="url(#clip0_1_883)">
<path d="M18.7733 3.22667C17.7467 2.2 16.5611 1.40556 15.2167 0.843334C13.8722 0.281113 12.4667 0 11 0C9.53333 0 8.12778 0.281113 6.78333 0.843334C5.43889 1.40556 4.25333 2.2 3.22667 3.22667C2.2 4.25333 1.40556 5.43889 0.843333 6.78333C0.281111 8.12778 0 9.53333 0 11C0 12.4667 0.281111 13.8722 0.843333 15.2167C1.40556 16.5611 2.2 17.7467 3.22667 18.7733C4.25333 19.8 5.43889 20.5944 6.78333 21.1567C8.12778 21.7189 9.53333 22 11 22C12.4667 22 13.8722 21.7189 15.2167 21.1567C16.5611 20.5944 17.7467 19.8 18.7733 18.7733C19.8 17.7467 20.5944 16.5611 21.1567 15.2167C21.7189 13.8722 22 12.4667 22 11C22 9.53333 21.7189 8.12778 21.1567 6.78333C20.5944 5.43889 19.8 4.25333 18.7733 3.22667ZM4.76667 18.48C4.91333 17.4533 5.28 16.5122 5.86667 15.6567C6.45333 14.8011 7.19889 14.1289 8.10333 13.64C9.00778 13.1511 9.97333 12.9067 11 12.9067C11.8311 12.9067 12.6256 13.0656 13.3833 13.3833C14.1411 13.7011 14.8133 14.1533 15.4 14.74C16.4267 15.7667 17.0378 17.0133 17.2333 18.48C16.3533 19.1644 15.3878 19.7022 14.3367 20.0933C13.2856 20.4844 12.1733 20.68 11 20.68C9.82667 20.68 8.71444 20.4844 7.66333 20.0933C6.61222 19.7022 5.64667 19.1644 4.76667 18.48ZM11 11.5867C10.0711 11.5867 9.27667 11.2567 8.61667 10.5967C7.95667 9.93667 7.62667 9.15444 7.62667 8.25C7.62667 7.34556 7.95667 6.56333 8.61667 5.90333C9.27667 5.24333 10.0711 4.91333 11 4.91333C11.9289 4.91333 12.7233 5.24333 13.3833 5.90333C14.0433 6.56333 14.3733 7.34556 14.3733 8.25C14.3733 9.15444 14.0433 9.93667 13.3833 10.5967C12.7233 11.2567 11.9289 11.5867 11 11.5867ZM18.3333 17.38C17.9911 16.0111 17.3311 14.8378 16.3533 13.86C15.5711 13.0289 14.6422 12.4422 13.5667 12.1C14.2022 11.66 14.7033 11.0978 15.07 10.4133C15.4367 9.72889 15.62 8.98333 15.62 8.17667C15.62 7.37 15.4122 6.61222 14.9967 5.90333C14.5811 5.19444 14.0189 4.63222 13.31 4.21667C12.6011 3.80111 11.8311 3.59333 11 3.59333C10.1689 3.59333 9.39889 3.80111 8.69 4.21667C7.98111 4.63222 7.41889 5.19444 7.00333 5.90333C6.58778 6.61222 6.38 7.37 6.38 8.17667C6.38 8.98333 6.56333 9.72889 6.93 10.4133C7.29667 11.0978 7.79778 11.66 8.43333 12.1C7.45556 12.4422 6.6 12.9556 5.86667 13.64C4.74222 14.6667 4.00889 15.9133 3.66667 17.38C2.93333 16.5 2.35889 15.51 1.94333 14.41C1.52778 13.31 1.32 12.1733 1.32 11C1.32 9.24 1.74778 7.61444 2.60333 6.12333C3.45889 4.63222 4.63222 3.45889 6.12333 2.60333C7.61444 1.74778 9.24 1.32 11 1.32C12.76 1.32 14.3856 1.74778 15.8767 2.60333C17.3678 3.45889 18.5411 4.63222 19.3967 6.12333C20.2522 7.61444 20.68 9.24 20.68 11C20.68 12.1733 20.4722 13.31 20.0567 14.41C19.6411 15.51 19.0667 16.5 18.3333 17.38Z" fill="#545E69"/>
</g>
<defs>
<clipPath id="clip0_1_883">
<rect width="22" height="22" fill="white" transform="matrix(1 0 0 -1 0 22)"/>
</clipPath>
</defs>
</svg>
