<svg width="24" height="24" viewBox="0 0 24 24" fill="none" xmlns="http://www.w3.org/2000/svg">
<g clip-path="url(#clip0_1_918)">
<path d="M9.92 19.76C8.10667 19.76 6.44 19.32 4.92 18.44C3.4 17.56 2.2 16.36 1.32 14.84C0.44 13.32 0 11.6667 0 9.88C0 8.09333 0.44 6.44 1.32 4.92C2.2 3.4 3.4 2.2 4.92 1.32C6.44 0.440001 8.09333 0 9.88 0C11.6667 0 13.32 0.440001 14.84 1.32C16.36 2.2 17.56 3.4 18.44 4.92C19.32 6.44 19.76 8.09333 19.76 9.88C19.76 11.6667 19.32 13.32 18.44 14.84C17.56 16.36 16.36 17.56 14.84 18.44C13.32 19.32 11.68 19.76 9.92 19.76ZM9.92 1.84C8.48 1.84 7.14667 2.2 5.92 2.92C4.69333 3.64 3.72 4.61333 3 5.84C2.28 7.06667 1.92 8.41333 1.92 9.88C1.92 11.3467 2.28 12.6933 3 13.92C3.72 15.1467 4.69333 16.12 5.92 16.84C7.14667 17.56 8.48 17.92 9.92 17.92C11.36 17.92 12.6933 17.56 13.92 16.84C15.1467 16.12 16.12 15.1467 16.84 13.92C17.56 12.6933 17.92 11.3467 17.92 9.88C17.92 8.41333 17.56 7.06667 16.84 5.84C16.12 4.61333 15.1467 3.64 13.92 2.92C12.6933 2.2 11.36 1.84 9.92 1.84ZM23.68 23.76C23.8933 23.5467 24 23.3067 24 23.04C24 22.7733 23.8933 22.56 23.68 22.4L19.52 18.24C19.36 18.0267 19.1467 17.92 18.88 17.92C18.6133 17.92 18.3867 18.0133 18.2 18.2C18.0133 18.3867 17.92 18.6133 17.92 18.88C17.92 19.1467 18 19.36 18.16 19.52L22.4 23.76C22.56 23.92 22.7733 24 23.04 24C23.3067 24 23.52 23.92 23.68 23.76Z" fill="#6D757F"/>
</g>
<defs>
<clipPath id="clip0_1_918">
<rect width="24" height="24" fill="white" transform="matrix(1 0 0 -1 0 24)"/>
</clipPath>
</defs>
</svg>
