<svg width="17" height="16" viewBox="0 0 17 16" fill="none" xmlns="http://www.w3.org/2000/svg">
<g clip-path="url(#clip0_1_937)">
<path d="M14.185 1.22667H12.745V0.48C12.745 0.337777 12.7006 0.222221 12.6117 0.133333C12.5228 0.0444441 12.4072 0 12.265 0C12.1228 0 12.0072 0.0444441 11.9183 0.133333C11.8295 0.222221 11.785 0.337777 11.785 0.48V1.22667H4.74501V0.48C4.74501 0.337777 4.70057 0.222221 4.61168 0.133333C4.52279 0.0444441 4.40724 0 4.26501 0C4.12279 0 4.00724 0.0444441 3.91835 0.133333C3.82946 0.222221 3.78501 0.337777 3.78501 0.48V1.22667H2.34501C1.77613 1.22667 1.28724 1.43111 0.878348 1.84C0.469459 2.24889 0.265015 2.73778 0.265015 3.30667V13.92C0.265015 14.4889 0.469459 14.9778 0.878348 15.3867C1.28724 15.7956 1.77613 16 2.34501 16H14.185C14.7539 16 15.2428 15.7956 15.6517 15.3867C16.0606 14.9778 16.265 14.4889 16.265 13.92V3.30667C16.265 2.73778 16.0606 2.24889 15.6517 1.84C15.2428 1.43111 14.7539 1.22667 14.185 1.22667ZM2.34501 2.24H3.78501V2.77333C3.78501 2.88 3.82946 2.98667 3.91835 3.09333C4.00724 3.2 4.12279 3.25333 4.26501 3.25333C4.40724 3.25333 4.52279 3.2 4.61168 3.09333C4.70057 2.98667 4.74501 2.88 4.74501 2.77333V2.24H11.785V2.77333C11.785 2.88 11.8295 2.98667 11.9183 3.09333C12.0072 3.2 12.1228 3.25333 12.265 3.25333C12.4072 3.25333 12.5228 3.2 12.6117 3.09333C12.7006 2.98667 12.745 2.88 12.745 2.77333V2.24H14.185C14.505 2.24 14.7628 2.34667 14.9583 2.56C15.1539 2.77333 15.2517 3.02222 15.2517 3.30667V4.48H1.27835V3.30667C1.27835 3.02222 1.37613 2.77333 1.57168 2.56C1.76724 2.34667 2.02501 2.24 2.34501 2.24ZM14.185 14.9867H2.34501C2.02501 14.9867 1.76724 14.8889 1.57168 14.6933C1.37613 14.4978 1.27835 14.24 1.27835 13.92V5.49333H15.2517V13.92C15.2517 14.24 15.1539 14.4978 14.9583 14.6933C14.7628 14.8889 14.505 14.9867 14.185 14.9867Z" fill="#6D757F"/>
</g>
<defs>
<clipPath id="clip0_1_937">
<rect width="16.53" height="16" fill="white" transform="matrix(1 0 0 -1 0 16)"/>
</clipPath>
</defs>
</svg>
