<svg width="75" height="75" viewBox="0 0 75 75" fill="none" xmlns="http://www.w3.org/2000/svg">
<g opacity="0.1" clip-path="url(#clip0_1_1452)">
<path d="M68.75 9.25H6.25C4.58333 9.41667 3.125 10.0833 1.875 11.25C0.625 12.4167 0 13.9167 0 15.75V59.5C0 61.1667 0.625 62.5833 1.875 63.75C3.125 64.9167 4.58333 65.5 6.25 65.5H68.75C70.4167 65.5 71.875 64.9167 73.125 63.75C74.375 62.5833 75 61.0833 75 59.25V15.75C75 13.9167 74.375 12.4167 73.125 11.25C71.875 10.0833 70.4167 9.5 68.75 9.5V9.25ZM6.25 12.5H68.75L69.5 12.75L39.75 39.75C39.0833 40.25 38.3333 40.5 37.5 40.5C36.6667 40.5 35.9167 40.25 35.25 39.75L5.5 12.75L6.25 12.5ZM3 59.25V15.75L3.25 14.75L28 37.5C22.1667 42.5 13.9167 50.0833 3.25 60.25L3 59.25ZM68.75 62.5H6.25L5.5 62.25C16.3333 52.0833 24.6667 44.5 30.5 39.5L33.25 42C34.4167 43.1667 35.8333 43.75 37.5 43.75C39.1667 43.75 40.5833 43.1667 41.75 42L44.5 39.5C50.3333 44.5 58.6667 52.0833 69.5 62.25L68.75 62.5ZM72 59.25C72 59.4167 71.9167 59.6667 71.75 60V60.25C61.0833 50.0833 52.8333 42.5 47 37.5L71.75 14.75L72 15.5V59.25Z" fill="#7B96B7"/>
</g>
<defs>
<clipPath id="clip0_1_1452">
<rect width="75" height="75" fill="white" transform="matrix(1 0 0 -1 0 75)"/>
</clipPath>
</defs>
</svg>
